<?xml version="1.0" encoding="utf-8"?>
<!-- Generator: Adobe Illustrator 22.0.1, SVG Export Plug-In . SVG Version: 6.00 Build 0)  -->
<svg version="1.1" id="Слой_1" xmlns="http://www.w3.org/2000/svg" xmlns:xlink="http://www.w3.org/1999/xlink" x="0px" y="0px"
	 viewBox="0 0 1573 615" style="enable-background:new 0 0 1573 615;" xml:space="preserve">
<style type="text/css">
	.st0{display:none;}
	.st1{fill:url(#path12_1_);}
	.st2{fill:url(#path22_1_);}
	.st3{fill:url(#path32_1_);}
	.st4{fill:#FFFFFF;}
</style>
<title>ч Сделано в Триада Сай + красный</title>
<desc>Created with Sketch.</desc>
<g id="Page-1">
	<g id="ч-Сделано-в-Триада-Сай-_x2B_-красный-" transform="translate(0.000000, -57.718210)">
		<rect id="Rectangle" y="57.7" class="st0" width="1573" height="615"/>
		<g id="Триада-сайт-логотип-цветной" transform="translate(56.000000, 92.718210)">
			<g id="Layer1000">
				
					<linearGradient id="path12_1_" gradientUnits="userSpaceOnUse" x1="424.4452" y1="668.8299" x2="424.4452" y2="667.8299" gradientTransform="matrix(456.018 0 0 -517.2833 -193165.5781 345990.2188)">
					<stop  offset="0" style="stop-color:#F00924"/>
					<stop  offset="1" style="stop-color:#A30000"/>
				</linearGradient>
				<path id="path12" class="st1" d="M161.1,361.7l82.7,0.1l114.7-198.9L577.3,533l39.8-73.4C532.7,311.7,448.6,161,360.4,15.7
					L161.1,361.7z"/>
				
					<linearGradient id="path22_1_" gradientUnits="userSpaceOnUse" x1="424.2929" y1="668.8026" x2="424.2929" y2="667.8026" gradientTransform="matrix(398.4649 0 0 -445.6656 -168854.0156 298063.625)">
					<stop  offset="0" style="stop-color:#F00924"/>
					<stop  offset="1" style="stop-color:#A30000"/>
				</linearGradient>
				<polygon id="path22" class="st2" points="12.6,447 411,447 370.1,374.4 139.4,373.9 352.5,1.3 267.6,1.7 				"/>
				
					<linearGradient id="path32_1_" gradientUnits="userSpaceOnUse" x1="424.6334" y1="668.7458" x2="424.6334" y2="667.7458" gradientTransform="matrix(555.0222 0 0 -346.2224 -235398.8594 231722.5156)">
					<stop  offset="0" style="stop-color:#F00924"/>
					<stop  offset="1" style="stop-color:#A30000"/>
				</linearGradient>
				<polygon id="path32" class="st3" points="359.5,187.8 316.9,261 432.3,459.7 4.5,459.6 46.4,534 559.6,532.7 				"/>
			</g>
		</g>
		<path id="СделановТриадаСайт" class="st4" d="M764.2,99.7c11.8,0,17.3,7.7,17.3,19.3v6.9h-8.1v-7.4
			c0-6.9-2.7-11.1-9-11.1c-6.1,0-9,4.2-9,11.1v40.6c0,6.9,2.8,11.1,9,11.1c6.2,0,9-4.2,9-11.1v-10h8.1v9.5
			c0,11.6-5.5,19.3-17.3,19.3c-11.7,0-17.2-7.7-17.2-19.3V119C747,107.4,752.5,99.7,764.2,99.7z M836,187.8h-8.3v-10.5h-31.3v10.5
			h-8.2v-18.1h4.9c2.6-3,3.2-6.5,3.4-11.2l3-58.1h30.7v69.3h5.8V187.8z M807.3,108.3l-2.5,50.2c-0.3,5.5-1.1,8.8-3.5,11.3h20.2
			v-61.5H807.3z M852.7,134.5h18.7v7.7h-18.7v27.3h23v7.8h-31.5v-76.8h31.5v7.8h-23V134.5z M915.2,108.3h-14.7l-1.8,49.9
			c-0.4,12.2-3.7,19.1-15.4,19.2H882v-7.8c7.1,0,8.3-3.6,8.5-11l2.1-58.2h31.2v76.8h-8.5V108.3z M961.6,161.8h-19.4l-3,15.5h-7.9
			l14.7-76.8h12.4l14.7,76.8h-8.5L961.6,161.8z M951.7,110.1l-8.4,44.3h17.1L951.7,110.1z M1007.8,142.7H989v34.6h-8.5v-76.8h8.5
			v34.6h18.8v-34.6h8.5v76.8h-8.5V142.7z M1025.1,158.8V119c0-11.7,5.8-19.3,17.5-19.3c11.8,0,17.6,7.6,17.6,19.3v39.7
			c0,11.6-5.8,19.3-17.6,19.3C1030.9,178.1,1025.1,170.4,1025.1,158.8z M1033.6,118.6v40.6c0,7,3,11.1,9.1,11.1
			c6.2,0,9.1-4.1,9.1-11.1v-40.6c0-6.9-2.8-11.1-9.1-11.1C1036.5,107.5,1033.6,111.7,1033.6,118.6z M1086.8,100.5h17.2
			c11.9,0,16.6,5.7,16.6,17v3.6c0,8.1-2.3,13.2-9,15.3c7.4,2.1,10.3,8,10.3,16.5v6.5c0,11.5-5.6,18-17.5,18h-17.6V100.5z
			 M1095.3,133.1h6.6c6.8,0,10.3-2.2,10.3-10.2v-4.5c0-6.8-2.3-10.1-8.4-10.1h-8.4V133.1z M1095.3,169.5h9.1c6.2,0,9.1-3.3,9.1-10.4
			v-6.8c0-8.6-3.4-11.4-10.7-11.4h-7.4V169.5z M798.4,396.8h-19.1V242.3h-31.6v-17.4h82.2v17.4h-31.6V396.8z M845.2,224.9h37.5
			c26.9,0,38.4,16,38.4,42v20.6c0,27.3-12.7,41.5-39.9,41.5h-16.9v67.8h-19.1V224.9z M864.3,311.8h16.9c14.2,0,21.1-6.6,21.1-23.1
			v-22.8c0-15.7-5.6-23.6-19.6-23.6h-18.4V311.8z M1000.8,260l-18.6,57.5L957,396.8h-19.8V224.9h16.9v128.2l15.2-47.4l27.4-80.8
			h21.3v171.9h-17.1V260z M1101.1,362.2h-43.3l-6.6,34.6h-17.6l32.8-171.9h27.7l32.8,171.9h-19.1L1101.1,362.2z M1079,246.5
			l-18.8,99.2h38.2L1079,246.5z M1245.9,420.4h-18.6v-23.6h-70v23.6h-18.4v-40.5h11c5.9-6.6,7.1-14.5,7.6-25.1l6.6-129.9h68.8v155
			h13V420.4z M1181.7,242.3l-5.6,112.3c-0.7,12.3-2.4,19.7-7.8,25.3h45.3V242.3H1181.7z M1326.3,362.2H1283l-6.6,34.6h-17.6
			l32.8-171.9h27.7l32.8,171.9h-19.1L1326.3,362.2z M1304.3,246.5l-18.8,99.2h38.2L1304.3,246.5z M790,458.3
			c26.4,0,38.7,17.2,38.7,43.2V517h-18.1v-16.5c0-15.5-6.1-24.8-20.1-24.8c-13.7,0-20.1,9.3-20.1,24.8v90.9
			c0,15.5,6.4,24.8,20.1,24.8c14,0,20.1-9.3,20.1-24.8v-22.4h18.1v21.4c0,26-12.2,43.2-38.7,43.2c-26.2,0-38.4-17.2-38.4-43.2v-88.9
			C751.6,475.5,763.8,458.3,790,458.3z M909.9,597.4h-43.3l-6.6,34.6h-17.6l32.8-171.9h27.7L935.6,632h-19.1L909.9,597.4z
			 M887.8,481.7L869,580.9h38.2L887.8,481.7z M1007.7,424.9h11.7c0,15-10,24.1-26.4,24.1s-25.9-9.1-26.4-24.1h12
			c0.7,9.6,6.4,12.5,14.4,12.5S1006.9,434.5,1007.7,424.9z M1015.3,495.2l-17.1,54L971.4,632h-19.8V460.1h16.9v128.2l15.9-49.6
			l26.7-78.6h21.3V632h-17.1V495.2z M1098.4,632h-19.1V477.5h-31.6v-17.4h82.2v17.4h-31.6V632z"/>
	</g>
</g>
</svg>
